<svg width="439" height="639" viewBox="0 0 439 639" fill="none" xmlns="http://www.w3.org/2000/svg">
<path d="M410.144 183.758C415.93 145.364 389.496 109.549 351.102 103.763C312.708 97.9767 276.893 124.411 271.107 162.805C265.321 201.199 291.755 237.014 330.149 242.8C368.543 248.586 404.358 222.152 410.144 183.758Z" fill="#F1F1F4"/>
<path d="M395.332 192.695C390.185 207.199 379.488 219.063 365.593 225.679C351.698 232.295 335.745 233.12 321.241 227.973C306.738 222.826 294.874 212.128 288.258 198.234C281.642 184.339 280.817 168.385 285.964 153.882C291.111 139.379 301.809 127.514 315.703 120.899C322.583 117.623 330.041 115.734 337.651 115.341C345.261 114.947 352.874 116.056 360.055 118.605C367.236 121.153 373.845 125.091 379.504 130.194C385.164 135.297 389.762 141.464 393.038 148.344C396.314 155.224 398.203 162.682 398.596 170.292C398.99 177.901 397.881 185.514 395.332 192.695Z" fill="white"/>
<path d="M379.472 216.402C371.708 223.423 362.189 228.212 351.925 230.263C341.66 232.314 331.032 231.55 321.166 228.052C311.301 224.554 302.565 218.452 295.885 210.393C289.205 202.335 284.83 192.619 283.223 182.275C300.842 177.801 319.393 178.656 336.527 184.731C353.66 190.806 368.606 201.828 379.472 216.402Z" fill="#FE4400"/>
<path d="M371.647 163.235C369.934 168.049 366.833 172.247 362.735 175.299C358.637 178.351 353.726 180.119 348.623 180.381C343.521 180.642 338.455 179.385 334.066 176.768C329.678 174.151 326.164 170.292 323.968 165.678C321.772 161.065 320.994 155.904 321.73 150.848C322.467 145.792 324.686 141.067 328.107 137.272C331.528 133.477 335.998 130.781 340.951 129.525C345.903 128.27 351.117 128.511 355.933 130.218C359.136 131.35 362.084 133.103 364.608 135.376C367.132 137.649 369.182 140.398 370.642 143.465C372.102 146.533 372.942 149.858 373.114 153.25C373.287 156.643 372.788 160.036 371.647 163.235Z" fill="#FE4400"/>
<path d="M81.719 248.06C114.48 247.963 140.959 221.327 140.861 188.566C140.764 155.805 114.128 129.326 81.367 129.424C48.6064 129.521 22.1274 156.157 22.2246 188.918C22.3218 221.679 48.9584 248.158 81.719 248.06Z" fill="#407BFF"/>
<path d="M81.719 248.06C114.48 247.963 140.959 221.327 140.861 188.566C140.764 155.805 114.128 129.326 81.367 129.424C48.6064 129.521 22.1274 156.157 22.2246 188.918C22.3218 221.679 48.9584 248.158 81.719 248.06Z" fill="#F1F1F4"/>
<path d="M127.427 171.709C131.941 183.881 131.435 197.349 126.02 209.148C120.605 220.947 110.724 230.112 98.5518 234.626C86.3794 239.141 72.9123 238.635 61.1129 233.22C49.3136 227.805 40.1487 217.924 35.6343 205.752C31.1199 193.579 31.6259 180.112 37.041 168.313C42.4561 156.514 52.3366 147.349 64.509 142.834C76.6814 138.32 90.1486 138.826 101.948 144.241C113.747 149.656 122.912 159.537 127.427 171.709Z" fill="white"/>
<path d="M129.999 195.625C128.754 204.352 125.176 212.582 119.643 219.445C114.109 226.307 106.825 231.548 98.5595 234.615C90.2941 237.682 81.3542 238.46 72.6834 236.867C64.0126 235.274 55.9327 231.37 49.2966 225.567C58.2864 213.162 70.749 203.698 85.1119 198.37C99.4747 193.041 115.094 192.086 129.999 195.625Z" fill="#FE4400"/>
<path d="M96.1656 165.453C97.6625 169.496 97.9271 173.892 96.9261 178.085C95.9252 182.278 93.7035 186.081 90.5419 189.012C87.3803 191.943 83.4208 193.87 79.1637 194.551C74.9067 195.233 70.5434 194.636 66.6252 192.838C62.707 191.04 59.4099 188.12 57.1506 184.448C54.8914 180.777 53.7713 176.518 53.9322 172.209C54.093 167.901 55.5274 163.738 58.0542 160.244C60.5809 156.751 64.0865 154.086 68.1278 152.585C70.8134 151.584 73.67 151.123 76.5339 151.229C79.3978 151.335 82.2128 152.004 84.8174 153.2C87.422 154.395 89.7652 156.093 91.7125 158.195C93.6599 160.298 95.1731 162.764 96.1656 165.453Z" fill="#FE4400"/>
<path d="M240.347 143.588C266.78 117.154 266.78 74.2966 240.347 47.8627C213.913 21.4288 171.055 21.4288 144.621 47.8627C118.187 74.2966 118.187 117.154 144.621 143.588C171.055 170.022 213.913 170.022 240.347 143.588Z" fill="#FEBBA2"/>
<path d="M247.819 88.2023C249.311 99.1558 247.52 110.306 242.672 120.241C237.825 130.176 230.139 138.449 220.587 144.014C211.035 149.579 200.047 152.185 189.013 151.502C177.98 150.819 167.397 146.879 158.604 140.178C149.811 133.478 143.204 124.32 139.618 113.863C136.033 103.406 135.63 92.1205 138.461 81.4345C141.292 70.7486 147.23 61.1428 155.523 53.8331C163.816 46.5233 174.091 41.8382 185.048 40.3708C192.316 39.347 199.715 39.7754 206.817 41.6312C213.919 43.4869 220.581 46.7331 226.42 51.1818C232.258 55.6305 237.155 61.1933 240.829 67.548C244.502 73.9026 246.878 80.923 247.819 88.2023Z" fill="white"/>
<path d="M244.703 115.487C241.144 124.897 235.109 133.17 227.236 139.433C219.364 145.696 209.945 149.717 199.977 151.069C190.008 152.421 179.859 151.056 170.602 147.117C161.345 143.178 153.324 136.811 147.387 128.69C160.491 117.124 176.726 109.698 194.045 107.349C211.364 104.999 228.991 107.831 244.703 115.487Z" fill="#FE4400"/>
<path d="M209.685 91.8434C218.005 80.9093 215.887 65.3004 204.952 56.9799C194.018 48.6594 178.41 50.7782 170.089 61.7122C161.769 72.6463 163.887 88.2552 174.821 96.5757C185.755 104.896 201.364 102.777 209.685 91.8434Z" fill="#FE4400"/>
<path d="M416.779 262.204H22.2209L150.525 538.606H288.454L416.779 262.204Z" fill="#407BFF"/>
<path d="M66.5038 370.078L64.606 370.959L77.6706 399.105L79.5685 398.224L66.5038 370.078Z" fill="#FEBBA2"/>
<path d="M83.4328 406.584L81.5349 407.465L87.6488 420.636L89.5467 419.755L83.4328 406.584Z" fill="#FEBBA2"/>
<path d="M416.779 262.204H22.2209L150.525 538.606H288.454L416.779 262.204Z" fill="#F1F1F4"/>
<path opacity="0.2" d="M137.384 262.204H62.7288L175.8 538.606H199.946L137.384 262.204Z" fill="#FEBBA2"/>
<path d="M429.019 209.037H9.98059C4.46846 209.037 0 213.505 0 219.017V252.223C0 257.735 4.46846 262.204 9.98059 262.204H429.019C434.531 262.204 439 257.735 439 252.223V219.017C439 213.505 434.531 209.037 429.019 209.037Z" fill="#FEBBA2"/>
<path d="M268.2 638.852H170.8C167.304 638.851 163.938 637.528 161.377 635.149C158.816 632.77 157.249 629.511 156.99 626.025L150.525 538.606H288.454L281.925 626.025C281.673 629.499 280.119 632.749 277.574 635.126C275.03 637.504 271.682 638.834 268.2 638.852Z" fill="#407BFF"/>
<path d="M268.2 638.852H170.8C167.304 638.851 163.938 637.528 161.377 635.149C158.816 632.77 157.249 629.511 156.99 626.025L150.525 538.606H288.454L281.925 626.025C281.673 629.499 280.119 632.749 277.574 635.126C275.03 637.504 271.682 638.834 268.2 638.852Z" fill="#FEBBA2"/>
</svg>
