<svg width="165" height="251" viewBox="0 0 165 251" fill="none" xmlns="http://www.w3.org/2000/svg">
<path d="M151.311 251H20.1024C17.9925 250.97 15.9719 250.143 14.4459 248.686C12.9198 247.229 12.0012 245.248 11.8743 243.142L0.108 15.2734C0.0427671 14.2598 0.187606 13.2437 0.533447 12.2887C0.879288 11.3338 1.41867 10.4605 2.11778 9.72375C2.8169 8.98698 3.66067 8.40255 4.5962 8.00713C5.53174 7.6117 6.53888 7.4138 7.55448 7.42581H138.763C140.872 7.45315 142.892 8.27745 144.418 9.73313C145.945 11.1888 146.864 13.1681 146.991 15.2734L158.737 243.142C158.802 244.154 158.657 245.169 158.313 246.123C157.968 247.077 157.431 247.95 156.734 248.687C156.037 249.425 155.196 250.01 154.263 250.408C153.33 250.806 152.325 251.007 151.311 251Z" fill="white"/>
<path opacity="0.8" d="M151.311 251H20.1024C17.9925 250.97 15.9719 250.143 14.4459 248.686C12.9198 247.229 12.0012 245.248 11.8743 243.142L0.108 15.2734C0.0427671 14.2598 0.187606 13.2437 0.533447 12.2887C0.879288 11.3338 1.41867 10.4605 2.11778 9.72375C2.8169 8.98698 3.66067 8.40255 4.5962 8.00713C5.53174 7.6117 6.53888 7.4138 7.55448 7.42581H138.763C140.872 7.45315 142.892 8.27745 144.418 9.73313C145.945 11.1888 146.864 13.1681 146.991 15.2734L158.737 243.142C158.802 244.154 158.657 245.169 158.313 246.123C157.968 247.077 157.431 247.95 156.734 248.687C156.037 249.425 155.196 250.01 154.263 250.408C153.33 250.806 152.325 251.007 151.311 251Z" fill="#FEBBA2"/>
<path d="M125.814 0H111.301V1.02852H125.814V0Z" fill="white"/>
<path d="M106.272 0H100.954V1.02852H106.272V0Z" fill="white"/>
<path d="M156.957 236.539H31.478C29.4574 236.519 27.5191 235.735 26.0535 234.344C24.5879 232.952 23.7037 231.058 23.579 229.041L12.3476 11.0976C12.2852 10.1276 12.4238 9.15513 12.7549 8.24124C13.086 7.32735 13.6023 6.49174 14.2716 5.78679C14.9408 5.08184 15.7484 4.52276 16.6439 4.14463C17.5393 3.76651 18.5033 3.57747 19.4752 3.5894H144.955C146.975 3.61171 148.912 4.39862 150.376 5.7917C151.84 7.18478 152.721 9.08062 152.843 11.0976L164.075 229.041C164.137 230.009 163.999 230.981 163.668 231.893C163.338 232.806 162.822 233.64 162.154 234.344C161.485 235.048 160.679 235.607 159.785 235.984C158.891 236.362 157.928 236.551 156.957 236.539Z" fill="white"/>
<path d="M156.957 231.53H31.4781C30.7422 231.505 30.0413 231.21 29.5085 230.702C28.9756 230.194 28.6481 229.507 28.588 228.774L17.3463 10.8406C17.3208 10.5507 17.3571 10.2587 17.4529 9.98391C17.5486 9.7091 17.7016 9.45772 17.9017 9.2464C18.1023 9.03556 18.3454 8.8697 18.6149 8.75978C18.8844 8.64985 19.1741 8.59837 19.465 8.60872H144.944C145.678 8.63647 146.377 8.9323 146.908 9.44024C147.438 9.94818 147.764 10.633 147.824 11.3651L159.117 229.298C159.142 229.587 159.106 229.878 159.01 230.151C158.915 230.425 158.762 230.676 158.563 230.886C158.364 231.097 158.123 231.263 157.855 231.374C157.587 231.485 157.299 231.538 157.009 231.53H156.957ZM19.465 8.86585C19.2093 8.85759 18.9547 8.9027 18.7174 8.99833C18.4801 9.09395 18.2653 9.23799 18.0868 9.42125C17.9151 9.6112 17.7837 9.83402 17.7006 10.0762C17.6175 10.3184 17.5845 10.575 17.6034 10.8303L28.8348 228.763C28.8921 229.431 29.1913 230.054 29.6763 230.516C30.1612 230.979 30.7984 231.248 31.4678 231.273H156.947C157.202 231.283 157.455 231.239 157.691 231.143C157.927 231.047 158.14 230.902 158.315 230.717C158.491 230.53 158.625 230.308 158.708 230.065C158.792 229.822 158.822 229.564 158.798 229.308L147.577 11.3754C147.523 10.7089 147.225 10.0854 146.742 9.62303C146.259 9.16062 145.623 8.89126 144.955 8.86585H19.465Z" fill="#FE4400"/>
<path opacity="0.3" d="M113.067 88.037C127.339 73.3916 126.409 49.339 110.991 34.3138C95.5726 19.2887 71.504 18.9809 57.2321 33.6263C42.9603 48.2716 43.8896 72.3243 59.308 87.3494C74.7263 102.374 98.7949 102.682 113.067 88.037Z" fill="#FE4400"/>
<path d="M115.919 60.8369C116.207 65.8913 115.19 70.9347 112.967 75.483C110.561 80.3615 106.825 84.4607 102.19 87.3085C97.5553 90.1563 92.2103 91.6368 86.7709 91.5793C81.1339 91.5286 75.606 90.0194 70.7252 87.1987C65.8444 84.378 61.7769 80.3419 58.9186 75.483C56.2547 71.0398 54.722 66.0106 54.4548 60.8369C54.2012 56.8691 54.7693 52.8917 56.1235 49.1536C57.4777 45.4155 59.5889 41.9971 62.325 39.1124C65.061 36.2276 68.363 33.9387 72.0243 32.3888C75.6856 30.8388 79.6274 30.0613 83.6031 30.1048C91.8775 30.191 99.812 33.4094 105.808 39.1119C111.805 44.8144 115.418 52.5772 115.919 60.8369Z" fill="#FE4400"/>
<path d="M112.936 75.4832C110.53 80.3617 106.794 84.4609 102.159 87.3087C97.5244 90.1565 92.1794 91.637 86.74 91.5796C81.103 91.5288 75.5751 90.0196 70.6943 87.1989C65.8135 84.3782 61.746 80.3421 58.8877 75.4832C66.7036 70.0854 75.9866 67.2137 85.4852 67.2551C95.2378 67.2918 104.772 70.1494 112.936 75.4832Z" fill="white"/>
<path d="M94.6773 60.1223C99.8192 54.8458 99.4825 46.1784 93.9254 40.7631C88.3683 35.3477 79.6951 35.235 74.5533 40.5114C69.4114 45.7878 69.7481 54.4552 75.3052 59.8706C80.8623 65.286 89.5355 65.3987 94.6773 60.1223Z" fill="white"/>
<path d="M138.968 151.748H40.714C39.8582 151.739 39.0375 151.406 38.4173 150.817C37.797 150.227 37.4233 149.424 37.3713 148.57L36.6308 134.171C36.6053 133.761 36.6646 133.35 36.8049 132.965C36.9453 132.579 37.1638 132.227 37.4466 131.929C37.7295 131.632 38.0707 131.396 38.4488 131.237C38.827 131.077 39.234 130.998 39.6443 131.003H137.899C138.753 131.011 139.572 131.343 140.192 131.93C140.812 132.518 141.187 133.318 141.241 134.171L141.982 148.57C142.009 148.98 141.951 149.392 141.811 149.779C141.671 150.165 141.453 150.519 141.17 150.818C140.887 151.116 140.545 151.353 140.166 151.513C139.788 151.673 139.38 151.753 138.968 151.748Z" fill="#FE4400"/>
<path opacity="0.3" d="M108.884 123.052H67.8462C66.9869 123.046 66.1623 122.712 65.5396 122.12C64.9169 121.528 64.5428 120.721 64.4932 119.864L64.3389 116.778C64.312 116.368 64.3702 115.956 64.5099 115.569C64.6496 115.182 64.8678 114.828 65.1508 114.53C65.4339 114.232 65.7755 113.995 66.1544 113.835C66.5333 113.675 66.9412 113.595 67.3525 113.6H108.38C109.236 113.609 110.057 113.941 110.677 114.531C111.297 115.121 111.671 115.924 111.723 116.778L111.887 119.864C111.913 120.273 111.854 120.684 111.714 121.07C111.575 121.456 111.357 121.809 111.076 122.108C110.795 122.407 110.455 122.645 110.078 122.807C109.701 122.969 109.295 123.053 108.884 123.052Z" fill="black"/>
<path opacity="0.3" d="M124.147 220.977H62.6728C61.2171 220.959 59.822 220.392 58.7672 219.389C57.7124 218.385 57.0758 217.02 56.9851 215.567L56.6251 208.471C56.5888 207.773 56.6949 207.075 56.9371 206.42C57.1792 205.765 57.5522 205.166 58.0334 204.66C58.5146 204.154 59.0939 203.751 59.7359 203.476C60.378 203.201 61.0693 203.06 61.7677 203.061H123.222C124.677 203.078 126.072 203.646 127.127 204.649C128.182 205.653 128.819 207.018 128.909 208.471L129.269 215.567C129.306 216.263 129.2 216.959 128.959 217.613C128.718 218.266 128.347 218.864 127.868 219.37C127.389 219.876 126.812 220.28 126.173 220.556C125.533 220.832 124.844 220.975 124.147 220.977Z" fill="black"/>
<path d="M140.768 186.573H42.5035C41.6484 186.562 40.8291 186.228 40.2094 185.639C39.5897 185.05 39.2152 184.249 39.1608 183.395L38.4203 168.996C38.3949 168.586 38.4541 168.175 38.5944 167.789C38.7347 167.403 38.953 167.049 39.2357 166.751C39.5184 166.453 39.8595 166.216 40.2376 166.056C40.6158 165.895 41.023 165.814 41.4339 165.818H139.688C140.544 165.827 141.365 166.159 141.985 166.749C142.605 167.339 142.979 168.142 143.031 168.996L143.782 183.395C143.806 183.805 143.745 184.215 143.605 184.601C143.464 184.986 143.245 185.339 142.963 185.636C142.681 185.934 142.34 186.171 141.963 186.332C141.585 186.493 141.179 186.575 140.768 186.573Z" fill="#FE4400"/>
<path d="M53.1794 141.37C53.2077 141.824 53.1419 142.28 52.9863 142.708C52.8306 143.136 52.5884 143.527 52.2747 143.857C51.961 144.187 51.5826 144.449 51.1631 144.626C50.7436 144.804 50.292 144.893 49.8367 144.887C48.8906 144.876 47.984 144.507 47.299 143.855C46.614 143.202 46.2014 142.314 46.1443 141.37C46.1145 140.916 46.1789 140.461 46.3333 140.033C46.4878 139.605 46.7291 139.213 47.042 138.883C47.3549 138.553 47.7327 138.291 48.1517 138.113C48.5706 137.936 49.0217 137.847 49.4767 137.852C50.4238 137.863 51.3317 138.232 52.0183 138.885C52.705 139.537 53.1197 140.425 53.1794 141.37Z" fill="#263238"/>
<path d="M64.0099 141.37C64.0397 141.824 63.9753 142.279 63.8209 142.707C63.6664 143.135 63.4251 143.526 63.1122 143.857C62.7993 144.187 62.4215 144.449 62.0025 144.626C61.5836 144.804 61.1324 144.893 60.6775 144.887C59.7307 144.879 58.8227 144.51 58.1372 143.857C57.4517 143.204 57.0398 142.315 56.9851 141.37C56.9553 140.916 57.0197 140.461 57.1742 140.033C57.3286 139.605 57.5699 139.213 57.8828 138.883C58.1957 138.553 58.5735 138.291 58.9925 138.113C59.4115 137.936 59.8626 137.847 60.3175 137.852C61.2643 137.861 62.1723 138.229 62.8578 138.883C63.5434 139.536 63.9552 140.425 64.0099 141.37Z" fill="#263238"/>
<path d="M74.7783 141.37C74.8081 141.824 74.7437 142.279 74.5892 142.707C74.4348 143.135 74.1935 143.526 73.8806 143.857C73.5677 144.187 73.1899 144.449 72.7709 144.626C72.352 144.804 71.9008 144.893 71.4459 144.887C70.4988 144.876 69.5909 144.508 68.9042 143.855C68.2176 143.203 67.8028 142.315 67.7432 141.37C67.7149 140.915 67.7806 140.46 67.9363 140.032C68.092 139.604 68.3342 139.213 68.6479 138.883C68.9616 138.552 69.34 138.291 69.7595 138.113C70.179 137.936 70.6305 137.847 71.0859 137.852C72.0319 137.864 72.9386 138.233 73.6236 138.885C74.3086 139.538 74.7212 140.426 74.7783 141.37Z" fill="#263238"/>
<path d="M85.6294 141.37C85.6576 141.824 85.5922 142.278 85.4371 142.706C85.2821 143.133 85.0408 143.524 84.7282 143.854C84.4156 144.184 84.0384 144.446 83.6201 144.624C83.2019 144.801 82.7515 144.891 82.297 144.888C81.3499 144.876 80.442 144.508 79.7553 143.855C79.0686 143.203 78.6539 142.315 78.5943 141.37C78.566 140.916 78.6315 140.462 78.7865 140.035C78.9416 139.607 79.1829 139.217 79.4955 138.887C79.8081 138.557 80.1852 138.295 80.6035 138.117C81.0218 137.939 81.4722 137.849 81.9267 137.853C82.8738 137.864 83.7817 138.232 84.4683 138.885C85.155 139.537 85.5697 140.425 85.6294 141.37Z" fill="#263238"/>
<path d="M55 176.175C55.0298 176.629 54.9654 177.084 54.8109 177.512C54.6565 177.94 54.4152 178.332 54.1023 178.662C53.7894 178.992 53.4116 179.254 52.9926 179.432C52.5736 179.609 52.1225 179.698 51.6676 179.693C50.7205 179.682 49.8126 179.313 49.1259 178.661C48.4392 178.008 48.0245 177.12 47.9649 176.175C47.9366 175.721 48.0023 175.265 48.158 174.837C48.3136 174.409 48.5559 174.018 48.8696 173.688C49.1833 173.358 49.5617 173.096 49.9812 172.919C50.4007 172.741 50.8522 172.652 51.3076 172.658C52.2536 172.669 53.1603 173.038 53.8453 173.69C54.5303 174.343 54.9429 175.231 55 176.175Z" fill="#263238"/>
<path d="M65.8097 176.175C65.838 176.629 65.7725 177.083 65.6175 177.511C65.4625 177.938 65.2211 178.329 64.9085 178.659C64.5959 178.989 64.2188 179.251 63.8005 179.429C63.3822 179.606 62.9318 179.696 62.4773 179.693C61.5302 179.682 60.6224 179.313 59.9357 178.661C59.249 178.008 58.8343 177.12 58.7747 176.175C58.7449 175.721 58.8092 175.266 58.9637 174.838C59.1182 174.41 59.3595 174.019 59.6724 173.688C59.9853 173.358 60.3631 173.096 60.782 172.919C61.201 172.741 61.6521 172.652 62.1071 172.658C63.0541 172.669 63.962 173.037 64.6487 173.69C65.3354 174.342 65.7501 175.23 65.8097 176.175Z" fill="#263238"/>
<path d="M76.6193 176.175C76.6476 176.63 76.5819 177.085 76.4262 177.513C76.2706 177.941 76.0283 178.332 75.7146 178.662C75.4009 178.993 75.0225 179.254 74.603 179.432C74.1835 179.609 73.732 179.698 73.2766 179.693C72.3299 179.684 71.4218 179.316 70.7363 178.663C70.0508 178.009 69.639 177.12 69.5842 176.175C69.5544 175.721 69.6188 175.266 69.7733 174.838C69.9278 174.41 70.169 174.019 70.4819 173.688C70.7948 173.358 71.1726 173.096 71.5916 172.919C72.0106 172.741 72.4617 172.652 72.9166 172.658C73.8637 172.669 74.7716 173.037 75.4583 173.69C76.145 174.342 76.5597 175.23 76.6193 176.175Z" fill="#263238"/>
<path d="M87.4189 176.175C87.4487 176.629 87.3844 177.084 87.2299 177.512C87.0754 177.94 86.8341 178.332 86.5212 178.662C86.2083 178.992 85.8305 179.254 85.4116 179.432C84.9926 179.609 84.5415 179.698 84.0865 179.693C83.1394 179.682 82.2316 179.313 81.5449 178.661C80.8582 178.008 80.4435 177.12 80.3838 176.175C80.3555 175.721 80.4213 175.265 80.5769 174.837C80.7326 174.409 80.9749 174.018 81.2886 173.688C81.6023 173.358 81.9807 173.096 82.4002 172.919C82.8196 172.741 83.2712 172.652 83.7265 172.658C84.6733 172.666 85.5813 173.035 86.2669 173.688C86.9524 174.341 87.3642 175.23 87.4189 176.175Z" fill="#263238"/>
<path d="M98.2285 176.175C98.2583 176.629 98.1939 177.085 98.0394 177.512C97.8849 177.94 97.6437 178.332 97.3308 178.662C97.0179 178.992 96.6401 179.254 96.2211 179.432C95.8021 179.609 95.351 179.698 94.8961 179.693C93.949 179.682 93.0411 179.313 92.3544 178.661C91.6677 178.008 91.253 177.121 91.1934 176.175C91.1652 175.722 91.2306 175.267 91.3856 174.84C91.5407 174.412 91.782 174.022 92.0946 173.692C92.4072 173.362 92.7844 173.1 93.2026 172.922C93.6209 172.744 94.0713 172.654 94.5258 172.658C95.4729 172.669 96.3808 173.037 97.0674 173.69C97.7541 174.342 98.1688 175.23 98.2285 176.175Z" fill="#263238"/>
<path d="M109.039 176.175C109.067 176.63 109.001 177.085 108.846 177.513C108.69 177.941 108.448 178.332 108.134 178.662C107.82 178.993 107.442 179.254 107.022 179.432C106.603 179.609 106.151 179.698 105.696 179.693C104.75 179.681 103.843 179.312 103.158 178.66C102.473 178.007 102.061 177.119 102.004 176.175C101.974 175.721 102.038 175.266 102.193 174.838C102.347 174.41 102.588 174.019 102.901 173.688C103.214 173.358 103.592 173.096 104.011 172.919C104.43 172.741 104.881 172.652 105.336 172.658C106.283 172.669 107.191 173.037 107.878 173.69C108.564 174.342 108.979 175.23 109.039 176.175Z" fill="#263238"/>
</svg>
