<svg width="472" height="617" viewBox="0 0 472 617" fill="none" xmlns="http://www.w3.org/2000/svg">
<path d="M328.53 1H14.7191C7.14223 1 1 7.14223 1 14.7191V602.281C1 609.858 7.14223 616 14.7191 616H328.53C336.107 616 342.249 609.858 342.249 602.281V14.7191C342.249 7.14223 336.107 1 328.53 1Z" fill="#FEBBA2" stroke="#FEBBA2" stroke-miterlimit="10"/>
<path d="M195.221 37.7469H152.742C152.168 37.7469 151.6 37.6338 151.07 37.4142C150.54 37.1946 150.058 36.8728 149.652 36.467C149.247 36.0612 148.925 35.5795 148.705 35.0493C148.485 34.5192 148.372 33.9509 148.372 33.3771C148.372 32.8042 148.486 32.2369 148.705 31.7079C148.925 31.1789 149.248 30.6985 149.654 30.2944C150.06 29.8902 150.541 29.5702 151.072 29.3529C151.602 29.1355 152.169 29.025 152.742 29.0276H195.221C196.374 29.0276 197.48 29.4859 198.296 30.3016C199.112 31.1173 199.57 32.2235 199.57 33.3771C199.573 33.95 199.462 34.5178 199.245 35.0478C199.027 35.5779 198.707 36.0597 198.303 36.4658C197.899 36.8718 197.419 37.194 196.89 37.4139C196.361 37.6337 195.793 37.7469 195.221 37.7469Z" fill="#FE4400"/>
<path d="M320.684 561.043H22.564V38.255H93.2324L101.179 44.8402C103.949 47.156 107.446 48.4225 111.057 48.4173H235.728C239.47 48.3966 243.078 47.0253 245.89 44.5556L253.064 38.255H320.623L320.684 561.043Z" fill="white" stroke="#FEBBA2" stroke-width="0.938618" stroke-linecap="round" stroke-linejoin="round"/>
<path d="M141.625 76.7903L137.561 63.1322H36.1005V76.7903V533.279V546.958H308.063V76.7903H141.625Z" fill="#FE4400"/>
<path d="M298.49 101.403H45.6533V531.917H298.49V101.403Z" fill="white"/>
<path d="M181.157 577.201C181.161 575.857 180.766 574.543 180.023 573.424C179.279 572.305 178.22 571.431 176.98 570.914C175.74 570.397 174.375 570.26 173.057 570.52C171.738 570.779 170.527 571.424 169.576 572.373C168.624 573.321 167.976 574.531 167.712 575.848C167.448 577.166 167.582 578.532 168.095 579.773C168.608 581.015 169.478 582.076 170.595 582.823C171.712 583.57 173.025 583.969 174.369 583.969C176.164 583.963 177.884 583.249 179.156 581.982C180.427 580.714 181.146 578.996 181.157 577.201Z" fill="#FE4400"/>
<path d="M153.088 513.117C199.065 513.117 236.337 460.085 236.337 394.666C236.337 329.247 199.065 276.214 153.088 276.214C107.111 276.214 69.8389 329.247 69.8389 394.666C69.8389 460.085 107.111 513.117 153.088 513.117Z" fill="#FE4400"/>
<path opacity="0.5" d="M153.088 513.117C199.065 513.117 236.337 460.085 236.337 394.666C236.337 329.247 199.065 276.214 153.088 276.214C107.111 276.214 69.8389 329.247 69.8389 394.666C69.8389 460.085 107.111 513.117 153.088 513.117Z" fill="#B93200"/>
<path d="M164.897 262.454C164.897 262.454 159.694 253.756 154.918 253.329C150.141 252.902 93.2734 288.592 84.5745 307.168C75.8756 325.745 67.6442 363.02 90.6719 398.893C113.13 433.79 148.333 432.632 166.584 430.884C184.835 429.136 197.071 423.201 215.566 408.364C234.061 393.527 251.032 371.678 253.492 356.842C255.951 342.005 246.907 333.753 241.134 331.7C235.362 329.647 201.969 330.054 177.641 305.278C153.312 280.503 164.897 262.454 164.897 262.454Z" fill="#FE4400" stroke="#FE4400" stroke-linecap="round" stroke-linejoin="round"/>
<path d="M172.274 251.154C172.274 251.154 157.519 256.804 148.393 266.784C139.267 276.763 133.637 292.413 133.21 315.42C132.784 338.428 140.161 364.463 168.799 375.764C197.436 387.064 223.065 378.365 231.317 370.54C239.569 362.715 249.609 340.602 249.609 340.602C249.609 340.602 204.041 352.797 182.335 327.127C160.628 301.457 172.274 251.154 172.274 251.154Z" fill="white" stroke="#FEBBA2" stroke-linecap="round" stroke-linejoin="round"/>
<path d="M427.307 267.19C416.169 250.483 389.584 245.545 368.569 238.736C347.553 231.927 335.175 218.411 340.744 184.957C346.313 151.503 375.296 97.1552 374.747 87.2572C374.199 77.3591 274.588 77.9892 265.3 81.1598C256.011 84.3305 254.182 83.6191 245.524 94.757C240.726 100.772 236.384 107.138 232.537 113.801L243.268 91.2408H244.061C245.227 88.2757 246.882 85.5276 248.959 83.111C258.403 72.1553 263.754 58.2633 264.101 43.8033C264.507 22.5235 249.365 24.5763 246.5 31.1208C243.634 37.6653 226.866 60.1849 221.948 66.3229C217.029 72.4609 206.806 89.249 206.806 89.249L195.444 128.638C195.444 128.638 192.965 140.386 178.738 184.917C164.51 229.448 170.709 249.975 170.709 249.975C170.709 249.975 166.99 248.126 158.332 274.71C149.674 301.295 153.393 335.298 168.84 351.375C184.286 367.451 204.712 366.841 227.598 357.573C241.676 351.542 253.4 341.08 260.991 327.778C260.991 327.778 285.116 321.68 303.042 308.002C320.969 294.323 334.566 280.178 360.581 281.417C386.597 282.657 416.23 297.494 426.128 296.864C436.026 296.234 438.444 283.877 427.307 267.19Z" fill="white"/>
<path d="M267.821 209.327C199.022 219.59 177.397 236.013 184.266 258.614C185.692 263.095 188.008 267.243 191.075 270.808C191.075 271.235 191.075 271.702 191.197 272.19C191.197 272.19 192.417 272.922 194.246 274.223C196.654 276.549 199.259 278.664 202.03 280.544C206.542 284.832 210.587 290.198 209.753 295.177C207.985 305.787 183.331 324.323 170.873 325.217C158.414 326.111 154.084 313.734 152.316 326.985C150.548 340.237 177.945 372.919 204.449 369.382C230.952 365.846 253.045 328.733 253.045 328.733C253.045 328.733 249.508 322.636 267.272 303.998C278.938 291.803 295.624 286.417 308.409 281.418C320.478 277.868 332.243 273.355 343.59 267.922C375.033 252.516 412.389 262.8 412.389 262.8C412.389 262.8 336.619 198.941 267.821 209.327Z" fill="#B93200"/>
<path opacity="0.5" d="M267.821 209.327C199.022 219.59 177.397 236.013 184.266 258.614C185.692 263.095 188.008 267.243 191.075 270.808C191.075 271.235 191.075 271.702 191.197 272.19C191.197 272.19 192.417 272.922 194.246 274.223C196.654 276.549 199.259 278.664 202.03 280.544C206.542 284.832 210.587 290.198 209.753 295.177C207.985 305.787 183.331 324.323 170.873 325.217C158.414 326.111 154.084 313.734 152.316 326.985C150.548 340.237 177.945 372.919 204.449 369.382C230.952 365.846 253.045 328.733 253.045 328.733C253.045 328.733 249.508 322.636 267.272 303.998C278.938 291.803 295.624 286.417 308.409 281.418C320.478 277.868 332.243 273.355 343.59 267.922C375.033 252.516 412.389 262.8 412.389 262.8C412.389 262.8 336.619 198.941 267.821 209.327Z" fill="white"/>
<path d="M427.307 267.19C416.169 250.483 389.584 245.545 368.569 238.736C347.553 231.927 335.175 218.411 340.744 184.957C346.313 151.503 375.296 97.1552 374.747 87.2572C374.199 77.3591 274.588 77.9892 265.3 81.1598C256.011 84.3305 254.182 83.6191 245.524 94.7569C240.726 100.772 236.384 107.138 232.537 113.801L243.268 91.2408H244.061C245.227 88.2757 246.882 85.5276 248.959 83.111C258.403 72.1553 263.754 58.2633 264.101 43.8033C264.507 22.5235 249.365 24.5763 246.5 31.1208C243.634 37.6653 226.866 60.1849 221.948 66.3229C217.029 72.4609 206.806 89.249 206.806 89.249L195.444 128.638C195.444 128.638 192.965 140.386 178.738 184.917C164.51 229.448 170.709 249.975 170.709 249.975C170.709 249.975 166.99 248.126 158.332 274.71C149.674 301.295 153.393 335.298 168.84 351.374C184.286 367.451 204.712 366.841 227.598 357.573C241.676 351.542 253.4 341.08 260.991 327.778C260.991 327.778 285.116 321.68 303.042 308.002C320.969 294.323 334.566 280.178 360.581 281.417C386.597 282.657 416.23 297.494 426.128 296.864C436.026 296.234 438.444 283.877 427.307 267.19Z" stroke="#FEBBA2" stroke-linecap="round" stroke-linejoin="round"/>
<path d="M427.653 296.722C427.653 296.722 428.954 291.519 414.198 284.527C399.442 277.535 393.365 282.352 393.365 285.828C393.365 289.303 425.377 296.722 427.653 296.722Z" fill="white" stroke="#FEBBA2" stroke-linecap="round" stroke-linejoin="round"/>
<path d="M287.84 58.5791L250.605 87.2366H300.542C300.542 87.2366 300.542 52.0346 287.84 58.5791Z" fill="white" stroke="#FEBBA2" stroke-linecap="round" stroke-linejoin="round"/>
<path d="M241.134 265.28C246.423 259.303 253.015 254.623 260.402 251.601" stroke="#FEBBA2" stroke-linecap="round" stroke-linejoin="round"/>
<path d="M234.367 276.397C234.937 274.745 235.68 273.158 236.582 271.662" stroke="#FEBBA2" stroke-linecap="round" stroke-linejoin="round"/>
<path d="M219.529 315.014C217.538 313.262 215.677 311.366 213.961 309.344" stroke="#FEBBA2" stroke-linecap="round" stroke-linejoin="round"/>
<path d="M260.991 327.778C249.508 329.084 237.906 326.707 227.862 320.989" stroke="#FEBBA2" stroke-linecap="round" stroke-linejoin="round"/>
<path d="M400.214 84.7777H212.578C186.664 84.7777 165.669 104.838 165.669 129.492V217.903C165.669 239.407 181.542 257.374 202.721 261.703L192.823 290.99L238.634 262.78H400.214C426.108 262.78 447.123 242.72 447.123 218.066V129.654C447.123 104.838 426.108 84.7777 400.214 84.7777Z" fill="#FE4400" stroke="#FEBBA2" stroke-width="2" stroke-miterlimit="10"/>
<path d="M196.217 144.308H407.145" stroke="#FEBBA2" stroke-width="2.06409" stroke-miterlimit="10" stroke-linecap="round"/>
<path d="M196.217 166.035H407.145" stroke="#FEBBA2" stroke-width="2.06409" stroke-miterlimit="10" stroke-linecap="round"/>
<path d="M196.217 187.742H407.145" stroke="#FEBBA2" stroke-width="2.06409" stroke-miterlimit="10" stroke-linecap="round"/>
<path d="M196.217 209.448H407.145" stroke="#FEBBA2" stroke-width="2.06409" stroke-miterlimit="10" stroke-linecap="round"/>
<path d="M445.416 162.275C459.862 162.275 471.573 151.092 471.573 137.296C471.573 123.501 459.862 112.318 445.416 112.318C430.969 112.318 419.258 123.501 419.258 137.296C419.258 151.092 430.969 162.275 445.416 162.275Z" fill="#FEBBA2"/>
<path d="M443.384 154.938C442.525 153.221 442.139 151.305 442.266 149.389V129.065L437.673 131.626C437.178 131.912 436.618 132.066 436.047 132.073C435.619 132.077 435.194 131.991 434.802 131.819C434.41 131.647 434.058 131.395 433.771 131.077C433.172 130.455 432.844 129.623 432.856 128.76C432.843 128.174 433.013 127.598 433.344 127.114C433.818 126.546 434.381 126.059 435.011 125.671L443.913 121.118C444.907 120.405 446.07 119.964 447.287 119.838C450.315 119.838 451.819 122.114 451.819 126.667V150.101C451.819 154.552 450.234 156.767 447.043 156.767C446.323 156.831 445.6 156.693 444.955 156.37C444.309 156.047 443.765 155.552 443.384 154.938Z" fill="white"/>
<path d="M345.053 71.6888C345.053 71.6888 345.887 88.0501 360.622 95.8344C375.357 103.619 394.178 101.932 394.584 92.1557C394.991 82.3796 383.528 72.0953 375.764 58.986C368 45.8767 350.785 53.2748 343.428 62.2786" fill="white"/>
<path d="M345.053 71.6888C345.053 71.6888 345.887 88.0501 360.622 95.8344C375.357 103.619 394.178 101.932 394.584 92.1557C394.991 82.3796 383.528 72.0953 375.764 58.986C368 45.8767 350.785 53.2748 343.428 62.2786" stroke="#FEBBA2" stroke-linecap="round" stroke-linejoin="round"/>
<path d="M370.439 84.7776C369.199 91.3221 373.711 94.9399 377.796 96.9724C381.882 99.0048 389.991 97.8057 394.584 92.0741C394.788 87.2775 392.166 82.3997 388.487 77.1356C383.365 77.786 371.394 79.6559 370.439 84.7776Z" fill="white" stroke="#FEBBA2" stroke-linecap="round" stroke-linejoin="round"/>
<path d="M314.364 71.6888C314.364 71.6888 315.177 88.0501 329.912 95.8344C344.647 103.619 363.488 101.932 363.894 92.1557C364.301 82.3796 352.838 72.0953 345.054 58.986C337.269 45.8767 320.095 53.2748 312.717 62.2786" fill="white"/>
<path d="M314.364 71.6888C314.364 71.6888 315.177 88.0501 329.912 95.8344C344.647 103.619 363.488 101.932 363.894 92.1557C364.301 82.3796 352.838 72.0953 345.054 58.986C337.269 45.8767 320.095 53.2748 312.717 62.2786" stroke="#FEBBA2" stroke-linecap="round" stroke-linejoin="round"/>
<path d="M339.749 84.7776C338.509 91.3221 343.021 94.9399 347.106 96.9724C351.191 99.0048 359.301 97.8057 363.894 92.0741C364.077 87.2775 361.455 82.3997 357.797 77.1356C352.675 77.786 340.704 79.6559 339.749 84.7776Z" fill="white" stroke="#FEBBA2" stroke-linecap="round" stroke-linejoin="round"/>
<path d="M285.808 71.6888C285.808 71.6888 286.621 88.0501 301.356 95.8344C316.091 103.619 334.912 101.932 335.318 92.1557C335.725 82.3796 324.282 72.0953 316.498 58.986C308.713 45.8767 291.519 53.2748 284.161 62.2786" fill="white"/>
<path d="M285.808 71.6888C285.808 71.6888 286.621 88.0501 301.356 95.8344C316.091 103.619 334.912 101.932 335.318 92.1557C335.725 82.3796 324.282 72.0953 316.498 58.986C308.713 45.8767 291.519 53.2748 284.161 62.2786" stroke="#FEBBA2" stroke-linecap="round" stroke-linejoin="round"/>
<path d="M311.173 84.7776C309.953 91.3221 314.445 94.9399 318.551 96.9724C322.656 99.0048 330.745 97.8057 335.318 92.0741C335.522 87.2775 332.9 82.3997 329.221 77.1356C324.099 77.786 312.128 79.6559 311.173 84.7776Z" fill="white" stroke="#FEBBA2" stroke-linecap="round" stroke-linejoin="round"/>
<path d="M170.71 249.976C170.71 249.976 171.848 275.137 185.729 292.068" stroke="#FEBBA2" stroke-linecap="round" stroke-linejoin="round"/>
<path d="M130.304 354.992C130.304 360.114 126.89 364.26 122.683 364.26C118.475 364.26 115.061 360.195 115.061 354.992C115.061 349.789 118.475 345.724 122.683 345.724C126.89 345.724 130.304 349.87 130.304 354.992Z" fill="white"/>
<path d="M111.341 366.537C111.341 371.658 107.927 375.805 103.72 375.805C99.5126 375.805 96.0981 371.74 96.0981 366.537C96.0981 361.334 99.5126 357.248 103.72 357.248C107.927 357.248 111.341 361.415 111.341 366.537Z" stroke="#FEBBA2" stroke-linecap="round" stroke-linejoin="round"/>
</svg>
